{"title":"[ShepardTDS] Angel Beats! [720p 8-bit x265 HEVC] 1-13+BOTH OVA+E","uid":12618971,"size":2580147208,"categoryP":"video","categoryS":"tv_shows","magnet":"?xt=urn:btih:612519a5b8278ed469ca238bba1efbe4f8e02faa&amp;dn=%5BShepardTDS%5D+Angel+Beats%21+%5B720p+8-bit+x265+HEVC%5D+1-13%2BBOTH+OVA%2BE&amp;tr=udp%3A%2F%2Ftracker.leechers-paradise.org%3A6969&amp;tr=udp%3A%2F%2Fzer0day.ch%3A1337&amp;tr=udp%3A%2F%2Fopen.demonii.com%3A1337&amp;tr=udp%3A%2F%2Ftracker.coppersurfer.tk%3A6969&amp;tr=udp%3A%2F%2Fexodus.desync.com%3A6969","seeders":1,"leechers":0,"uploader":"ShepardTDS","files":16,"time":1445563835,"description":"Constant Quality encoding.\r\nVariable Bit rates\r\n\r\nOVA2 is subbed only as there is no dubbed version of it.\r\n\r\nGeneral\r\n\r\nFormat : Matroska\r\nFile size : 125 MiB\r\nDuration : 26mn 4s\r\nOverall bit rate : 673 Kbps-1,097 kbps\r\nEncoded date : UTC 2015-10-18 11:27:09\r\nWriting application : mkvmerge v7.7.0 ('Six Voices') 32bit built on Feb 28 2015 23:23:00\r\nWriting library : libebml v1.3.1 + libmatroska v1.4.2\r\n\r\nVideo\r\nID : 1\r\nFormat : V_MPEGH/ISO/HEVC\r\nCodec ID : V_MPEGH/ISO/HEVC\r\nDuration : 26mn 3s\r\nBit rate : 275 Kbps-691 kbps\r\nWidth : 1 280 pixels\r\nHeight : 720 pixels\r\nDisplay aspect ratio : 16:9\r\nFrame rate : 23.976 fps\r\nBits/(Pixel*Frame) : 0.012\r\nStream size : 51.4 MiB (41%)\r\n\r\nAudio #1\r\nID : 2\r\nFormat : AC-3\r\nFormat/Info : Audio Coding 3\r\nMode extension : CM (complete main)\r\nCodec ID : A_AC3\r\nDuration : 26mn 4s\r\nBit rate mode : Constant\r\nBit rate : 192 Kbps\r\nChannel(s) : 2 channels\r\nChannel positions : Front: L R\r\nSampling rate : 48.0 KHz\r\nBit depth : 16 bits\r\nCompression mode : Lossy\r\nStream size : 35.8 MiB (29%)\r\nLanguage : English\r\n\r\nAudio #2\r\nID : 3\r\nFormat : AC-3\r\nFormat/Info : Audio Coding 3\r\nMode extension : CM (complete main)\r\nCodec ID : A_AC3\r\nDuration : 26mn 4s\r\nBit rate mode : Constant\r\nBit rate : 192 Kbps\r\nChannel(s) : 2 channels\r\nChannel positions : Front: L R\r\nSampling rate : 48.0 KHz\r\nBit depth : 16 bits\r\nCompression mode : Lossy\r\nStream size : 35.8 MiB (29%)\r\nLanguage : Japanese\r\n\r\nText #1\r\nID : 4\r\nFormat : ASS\r\nCodec ID : S_TEXT/ASS\r\nCodec ID/Info : Advanced Sub Station Alpha\r\nCompression mode : Lossless\r\nTitle : Signs &amp; Songs (Doki/UTW/Elysium)\r\nLanguage : English\r\n\r\nText #2\r\nID : 5\r\nFormat : PGS\r\nMuxing mode : zlib\r\nCodec ID : S_HDMV/PGS\r\nCodec ID/Info : The same subtitle format used on BDs/HD-DVDs\r\nTitle : Official Subs\r\nLanguage : English\r\n\r\nText #3\r\nID : 6\r\nFormat : ASS\r\nCodec ID : S_TEXT/ASS\r\nCodec ID/Info : Advanced Sub Station Alpha\r\nCompression mode : Lossless\r\nTitle : Static-Subs (Doki; deanzel edit)\r\nLanguage : English\r\n\r\nText #4\r\nID : 7\r\nFormat : ASS\r\nCodec ID : S_TEXT/ASS\r\nCodec ID/Info : Advanced Sub Station Alpha\r\nCompression mode : Lossless\r\nTitle : Mazui (Elysium; Doki styling)\r\nLanguage : English\r\n\r\nText #5\r\nID : 8\r\nFormat : ASS\r\nCodec ID : S_TEXT/ASS\r\nCodec ID/Info : Advanced Sub Station Alpha\r\nCompression mode : Lossless\r\nTitle : UTW (Doki styling)\r\nLanguage : English\r\n\r\nText #6\r\nID : 9\r\nFormat : ASS\r\nCodec ID : S_TEXT/ASS\r\nCodec ID/Info : Advanced Sub Station Alpha\r\nCompression mode : Lossless\r\nTitle : Tormaid (joseole99)\r\nLanguage : English\r\n\r\nMenu\r\n00:00:00.000 : en:Opening\r\n00:01:31.090 : en:Part A\r\n00:13:01.780 : en:Part B\r\n00:24:17.455 : en:Ending\r\n00:25:47.545 : en:Preview","torrent":{"xt":"urn:btih:612519a5b8278ed469ca238bba1efbe4f8e02faa","amp;dn":"%5BShepardTDS%5D+Angel+Beats%21+%5B720p+8-bit+x265+HEVC%5D+1-13%2BBOTH+OVA%2BE","amp;tr":["udp%3A%2F%2Ftracker.leechers-paradise.org%3A6969","udp%3A%2F%2Fzer0day.ch%3A1337","udp%3A%2F%2Fopen.demonii.com%3A1337","udp%3A%2F%2Ftracker.coppersurfer.tk%3A6969","udp%3A%2F%2Fexodus.desync.com%3A6969"],"infoHash":"612519a5b8278ed469ca238bba1efbe4f8e02faa","infoHashBuffer":{"type":"Buffer","data":[97,37,25,165,184,39,142,212,105,202,35,139,186,30,251,228,248,224,47,170]},"announce":[],"urlList":[]}}